<svg width="48" height="48" viewBox="-100 -100 1200.00 1200.00" xmlns="http://www.w3.org/2000/svg">
  <path fill-rule="evenodd" clip-rule="evenodd" d="M512 0C229.23 0 0 229.23 0 512c0 226.49 146.69 418.34 350.15 485.86 25.6 4.71 34.97-11.11 34.97-24.65 0-12.17-.44-44.39-.68-87.17-142.43 30.94-172.49-68.83-172.49-68.83-23.3-59.2-56.91-74.97-56.91-74.97-46.53-31.82 3.53-31.17 3.53-31.17 51.43 3.62 78.52 52.82 78.52 52.82 45.7 78.3 119.88 55.67 149.15 42.58 4.64-33.1 17.87-55.68 32.53-68.49-113.72-12.95-233.23-56.86-233.23-253.1 0-55.91 19.96-101.61 52.72-137.42-5.28-12.95-22.82-65.1 5.02-135.71 0 0 42.97-13.75 140.82 52.48 40.83-11.35 84.63-17.03 128.22-17.22 43.59.19 87.39 5.87 128.22 17.22 97.85-66.23 140.82-52.48 140.82-52.48 27.84 70.61 10.3 122.76 5.02 135.71 32.76 35.81 52.72 81.51 52.72 137.42 0 196.72-119.72 240.01-233.72 252.74 18.38 15.83 34.72 47.06 34.72 94.81 0 68.49-.62 123.85-.62 140.82 0 13.64 9.37 29.56 35.02 24.57C877.31 930.34 1024 738.49 1024 512 1024 229.23 794.77 0 512 0z" fill="#fff"/>
</svg>