<svg id="visual" viewBox="0 0 900 300" width="900" height="300" xmlns="http://www.w3.org/2000/svg" xmlns:xlink="http://www.w3.org/1999/xlink" version="1.1"><rect x="0" y="0" width="900" height="300" fill="#141414"></rect><path d="M0 188L11.5 187.2C23 186.3 46 184.7 69 189.7C92 194.7 115 206.3 138.2 212.7C161.3 219 184.7 220 207.8 212C231 204 254 187 277 182.8C300 178.7 323 187.3 346 193.7C369 200 392 204 415.2 201.5C438.3 199 461.7 190 484.8 191.5C508 193 531 205 554 208.8C577 212.7 600 208.3 623 207.2C646 206 669 208 692.2 204.5C715.3 201 738.7 192 761.8 192C785 192 808 201 831 204.5C854 208 877 206 888.5 205L900 204L900 301L888.5 301C877 301 854 301 831 301C808 301 785 301 761.8 301C738.7 301 715.3 301 692.2 301C669 301 646 301 623 301C600 301 577 301 554 301C531 301 508 301 484.8 301C461.7 301 438.3 301 415.2 301C392 301 369 301 346 301C323 301 300 301 277 301C254 301 231 301 207.8 301C184.7 301 161.3 301 138.2 301C115 301 92 301 69 301C46 301 23 301 11.5 301L0 301Z" fill="#d76f42"></path><path d="M0 225L11.5 223C23 221 46 217 69 218.5C92 220 115 227 138.2 222.8C161.3 218.7 184.7 203.3 207.8 198.2C231 193 254 198 277 200.5C300 203 323 203 346 203C369 203 392 203 415.2 207.5C438.3 212 461.7 221 484.8 218.5C508 216 531 202 554 199.2C577 196.3 600 204.7 623 212C646 219.3 669 225.7 692.2 226C715.3 226.3 738.7 220.7 761.8 214.2C785 207.7 808 200.3 831 203.3C854 206.3 877 219.7 888.5 226.3L900 233L900 301L888.5 301C877 301 854 301 831 301C808 301 785 301 761.8 301C738.7 301 715.3 301 692.2 301C669 301 646 301 623 301C600 301 577 301 554 301C531 301 508 301 484.8 301C461.7 301 438.3 301 415.2 301C392 301 369 301 346 301C323 301 300 301 277 301C254 301 231 301 207.8 301C184.7 301 161.3 301 138.2 301C115 301 92 301 69 301C46 301 23 301 11.5 301L0 301Z" fill="#c2633e"></path><path d="M0 218L11.5 219.5C23 221 46 224 69 224.7C92 225.3 115 223.7 138.2 222.2C161.3 220.7 184.7 219.3 207.8 219.3C231 219.3 254 220.7 277 219.8C300 219 323 216 346 216.2C369 216.3 392 219.7 415.2 221.8C438.3 224 461.7 225 484.8 221.7C508 218.3 531 210.7 554 213.7C577 216.7 600 230.3 623 233C646 235.7 669 227.3 692.2 222C715.3 216.7 738.7 214.3 761.8 214C785 213.7 808 215.3 831 220.8C854 226.3 877 235.7 888.5 240.3L900 245L900 301L888.5 301C877 301 854 301 831 301C808 301 785 301 761.8 301C738.7 301 715.3 301 692.2 301C669 301 646 301 623 301C600 301 577 301 554 301C531 301 508 301 484.8 301C461.7 301 438.3 301 415.2 301C392 301 369 301 346 301C323 301 300 301 277 301C254 301 231 301 207.8 301C184.7 301 161.3 301 138.2 301C115 301 92 301 69 301C46 301 23 301 11.5 301L0 301Z" fill="#ac573a"></path><path d="M0 233L11.5 233.3C23 233.7 46 234.3 69 235.3C92 236.3 115 237.7 138.2 238C161.3 238.3 184.7 237.7 207.8 235.8C231 234 254 231 277 230.5C300 230 323 232 346 232.2C369 232.3 392 230.7 415.2 231.7C438.3 232.7 461.7 236.3 484.8 235C508 233.7 531 227.3 554 226.7C577 226 600 231 623 233.7C646 236.3 669 236.7 692.2 237.7C715.3 238.7 738.7 240.3 761.8 242.7C785 245 808 248 831 244.8C854 241.7 877 232.3 888.5 227.7L900 223L900 301L888.5 301C877 301 854 301 831 301C808 301 785 301 761.8 301C738.7 301 715.3 301 692.2 301C669 301 646 301 623 301C600 301 577 301 554 301C531 301 508 301 484.8 301C461.7 301 438.3 301 415.2 301C392 301 369 301 346 301C323 301 300 301 277 301C254 301 231 301 207.8 301C184.7 301 161.3 301 138.2 301C115 301 92 301 69 301C46 301 23 301 11.5 301L0 301Z" fill="#974c35"></path><path d="M0 254L11.5 252.5C23 251 46 248 69 245.7C92 243.3 115 241.7 138.2 243C161.3 244.3 184.7 248.7 207.8 251.3C231 254 254 255 277 255.8C300 256.7 323 257.3 346 255.5C369 253.7 392 249.3 415.2 249.2C438.3 249 461.7 253 484.8 251.7C508 250.3 531 243.7 554 241.7C577 239.7 600 242.3 623 245.8C646 249.3 669 253.7 692.2 255.3C715.3 257 738.7 256 761.8 257.7C785 259.3 808 263.7 831 263.2C854 262.7 877 257.3 888.5 254.7L900 252L900 301L888.5 301C877 301 854 301 831 301C808 301 785 301 761.8 301C738.7 301 715.3 301 692.2 301C669 301 646 301 623 301C600 301 577 301 554 301C531 301 508 301 484.8 301C461.7 301 438.3 301 415.2 301C392 301 369 301 346 301C323 301 300 301 277 301C254 301 231 301 207.8 301C184.7 301 161.3 301 138.2 301C115 301 92 301 69 301C46 301 23 301 11.5 301L0 301Z" fill="#824230"></path><path d="M0 277L11.5 276.2C23 275.3 46 273.7 69 271.7C92 269.7 115 267.3 138.2 268C161.3 268.7 184.7 272.3 207.8 271.3C231 270.3 254 264.7 277 261.8C300 259 323 259 346 260.2C369 261.3 392 263.7 415.2 264C438.3 264.3 461.7 262.7 484.8 263.8C508 265 531 269 554 270.3C577 271.7 600 270.3 623 267.5C646 264.7 669 260.3 692.2 262C715.3 263.7 738.7 271.3 761.8 275.3C785 279.3 808 279.7 831 276C854 272.3 877 264.7 888.5 260.8L900 257L900 301L888.5 301C877 301 854 301 831 301C808 301 785 301 761.8 301C738.7 301 715.3 301 692.2 301C669 301 646 301 623 301C600 301 577 301 554 301C531 301 508 301 484.8 301C461.7 301 438.3 301 415.2 301C392 301 369 301 346 301C323 301 300 301 277 301C254 301 231 301 207.8 301C184.7 301 161.3 301 138.2 301C115 301 92 301 69 301C46 301 23 301 11.5 301L0 301Z" fill="#6d382a"></path><path d="M0 286L11.5 286.5C23 287 46 288 69 287C92 286 115 283 138.2 280.8C161.3 278.7 184.7 277.3 207.8 275.7C231 274 254 272 277 274C300 276 323 282 346 285.5C369 289 392 290 415.2 288C438.3 286 461.7 281 484.8 280.7C508 280.3 531 284.7 554 283.8C577 283 600 277 623 275.7C646 274.3 669 277.7 692.2 278.3C715.3 279 738.7 277 761.8 278.2C785 279.3 808 283.7 831 284C854 284.3 877 280.7 888.5 278.8L900 277L900 301L888.5 301C877 301 854 301 831 301C808 301 785 301 761.8 301C738.7 301 715.3 301 692.2 301C669 301 646 301 623 301C600 301 577 301 554 301C531 301 508 301 484.8 301C461.7 301 438.3 301 415.2 301C392 301 369 301 346 301C323 301 300 301 277 301C254 301 231 301 207.8 301C184.7 301 161.3 301 138.2 301C115 301 92 301 69 301C46 301 23 301 11.5 301L0 301Z" fill="#592e24"></path></svg>